<svg width="360" height="360" viewBox="0 0 360 360" xmlns="http://www.w3.org/2000/svg">
  <defs>
    <radialGradient id="lemonWash" cx="38%" cy="32%" r="70%">
      <stop offset="0" stop-color="#fff3a7"/>
      <stop offset="0.42" stop-color="#e2bf46"/>
      <stop offset="0.76" stop-color="#c99a29"/>
      <stop offset="1" stop-color="#8f7d3c"/>
    </radialGradient>
    <filter id="softBleed" x="-16%" y="-16%" width="132%" height="132%">
      <feTurbulence type="fractalNoise" baseFrequency="0.017" numOctaves="3" seed="12" result="texture"/>
      <feDisplacementMap in="SourceGraphic" in2="texture" scale="7"/>
      <feGaussianBlur stdDeviation="0.45"/>
    </filter>
  </defs>
  <g opacity="0.86" filter="url(#softBleed)">
    <ellipse cx="187" cy="174" rx="128" ry="118" transform="rotate(-18 187 174)" fill="url(#lemonWash)"/>
    <ellipse cx="155" cy="134" rx="78" ry="55" transform="rotate(-18 155 134)" fill="#fff6bd" opacity="0.36"/>
    <ellipse cx="224" cy="214" rx="92" ry="66" transform="rotate(-18 224 214)" fill="#b68425" opacity="0.16"/>
    <path d="M86 170c38-69 140-108 212-44" fill="none" stroke="#fff4b0" stroke-width="10" stroke-linecap="round" opacity="0.22"/>
    <path d="M272 86c13-21 32-34 58-35" fill="none" stroke="#496a45" stroke-width="12" stroke-linecap="round" opacity="0.42"/>
  </g>
  <g opacity="0.32" fill="none" stroke="#775e22" stroke-linecap="round">
    <path d="M88 168c56-18 137-34 229 17" stroke-width="1.8"/>
    <path d="M118 111c48 12 112 45 165 116" stroke-width="1.3"/>
    <path d="M107 218c62-7 126 3 184 35" stroke-width="1.4"/>
  </g>
</svg>
